<svg xmlns="http://www.w3.org/2000/svg" viewBox="0 0 1920 1050" preserveAspectRatio="xMidYMid slice"><defs>
<linearGradient id="sky" x1="0" y1="0" x2="0" y2="1"><stop stop-color="#2fc8f4"/><stop offset=".55" stop-color="#a9ecff"/><stop offset="1" stop-color="#fff5c9"/></linearGradient>
<linearGradient id="m1" x1="0" y1="0" x2="0" y2="1"><stop stop-color="#2c94bd"/><stop offset="1" stop-color="#075b95"/></linearGradient>
<linearGradient id="grass" x1="0" y1="0" x2="0" y2="1"><stop stop-color="#91dc68"/><stop offset="1" stop-color="#139f88"/></linearGradient>
<linearGradient id="lake" x1="0" y1="0" x2="0" y2="1"><stop stop-color="#4bd7e7"/><stop offset="1" stop-color="#087cba"/></linearGradient><filter id="blur"><feGaussianBlur stdDeviation="35"/></filter></defs>
<rect width="1920" height="1050" fill="url(#sky)"/><circle cx="1515" cy="190" r="105" fill="#ffd13c"/><circle cx="1515" cy="190" r="165" fill="#ffd13c" opacity=".25" filter="url(#blur)"/>
<g fill="#fff" opacity=".78"><ellipse cx="300" cy="165" rx="170" ry="48"/><ellipse cx="460" cy="158" rx="120" ry="37"/><ellipse cx="950" cy="128" rx="190" ry="45"/><ellipse cx="1110" cy="143" rx="110" ry="33"/></g>
<path d="M0 690 240 385l180 185 190-300 250 330 210-255 210 230 220-335 420 450H0Z" fill="url(#m1)"/>
<path d="m235 386 80 96 105 88 90-143 100-157 102 135 148 195 85-103 125-152 101 110 109 120 85-130 135-205 128 138 292 312" fill="none" stroke="#fff" stroke-width="24" opacity=".72" stroke-linejoin="round"/>
<path d="M0 690c210-92 350 4 560-80 220-88 370-10 570 48 245 72 488-64 790 14v378H0Z" fill="url(#grass)"/>
<path d="M0 815c250-90 440 72 690 13 245-59 470-11 700 66 185 62 348 26 530-30v186H0Z" fill="url(#lake)"/>
<g fill="none" stroke="#c6fbff" stroke-width="10" opacity=".82"><path d="M70 900c190-45 320 45 510 0s320 45 510 0 320 45 510 0"/><path d="M300 970c160-35 270 35 430 0s270 35 430 0"/></g>
<g transform="translate(225 625)"><rect x="0" y="95" width="145" height="110" rx="8" fill="#fff5d8"/><path d="M-18 103 72 40l91 63Z" fill="#ff6d5f"/><rect x="58" y="132" width="30" height="73" fill="#087cba"/><rect x="18" y="130" width="25" height="27" fill="#ffd13c"/><rect x="104" y="130" width="25" height="27" fill="#ffd13c"/><rect x="185" y="65" width="18" height="140" fill="#fff5d8"/><path d="m172 70 22-55 22 55Z" fill="#075b95"/></g>
<g transform="translate(1240 250)"><path d="M0 0c65-42 133-42 198 0-22 16-42 33-60 54-27-13-52-13-78 0C43 34 23 17 0 0Z" fill="#ff6d5f" stroke="#fff" stroke-width="7"/><path d="M99 50v94" stroke="#072c5b" stroke-width="4"/><circle cx="99" cy="151" r="10" fill="#072c5b"/><path d="m92 160-21 42m35-42 23 42m-29-26-34 7m40-7 33 7" stroke="#072c5b" stroke-width="5" stroke-linecap="round"/></g></svg>