<svg xmlns="http://www.w3.org/2000/svg" viewBox="0 0 900 620" preserveAspectRatio="xMidYMid slice">
<defs>
  <linearGradient id="sky" x1="0" y1="0" x2="0" y2="1">
    <stop stop-color="#42c9f4"/><stop offset=".7" stop-color="#a9ebff"/><stop offset="1" stop-color="#fff0c8"/>
  </linearGradient>
  <linearGradient id="mount" x1="0" y1="0" x2="1" y2="1">
    <stop stop-color="#4e7f9a"/><stop offset="1" stop-color="#173b62"/>
  </linearGradient>
  <linearGradient id="grass" x1="0" y1="0" x2="0" y2="1">
    <stop stop-color="#79cf7b"/><stop offset="1" stop-color="#27989a"/>
  </linearGradient>
</defs>
<rect width="900" height="620" fill="url(#sky)"/>
<circle cx="700" cy="105" r="66" fill="#ffcb39"/>
<path d="M0 365 122 270l86 65 109-116 105 88 119-158 125 140 85-76 149 156v251H0Z" fill="url(#mount)"/>
<path d="M0 375c95-30 182 20 283 8 112-14 182-78 293-75 84 2 146 45 231 59 33 5 60 6 93 3v250H0Z" fill="url(#grass)"/>
<g transform="translate(315 380)">
  <rect x="0" y="70" width="190" height="118" rx="7" fill="#fff8e7"/>
  <path d="m-18 76 114-76 115 76Z" fill="#ff7658"/>
  <rect x="76" y="122" width="39" height="66" fill="#17699d"/>
  <rect x="25" y="112" width="32" height="30" fill="#ffd14a"/>
  <rect x="136" y="112" width="32" height="30" fill="#ffd14a"/>
</g>
<g transform="translate(536 330)">
  <rect x="0" y="118" width="38" height="150" fill="#fff8e7"/>
  <path d="m-20 121 39-95 40 95Z" fill="#17699d"/>
  <circle cx="19" cy="155" r="10" fill="#ffcb39"/>
</g>
<path d="M50 548c120-55 230 43 350 0 121-43 229 43 365 0" fill="none" stroke="#d9ffdc" stroke-width="16" stroke-linecap="round" opacity=".75"/>
</svg>