<svg xmlns="http://www.w3.org/2000/svg" viewBox="0 0 900 600" preserveAspectRatio="xMidYMid slice">
<defs>
<linearGradient id="bg" x1="0" y1="0" x2="1" y2="1"><stop stop-color="#ffcb36"/><stop offset="1" stop-color="#79e29d"/></linearGradient>
<linearGradient id="mount" x1="0" y1="0" x2="1" y2="1"><stop stop-color="#20559b"/><stop offset="1" stop-color="#0f2d58"/></linearGradient>
</defs>
<rect width="900" height="600" fill="url(#bg)"/>
<path d="M0 350 116 241l84 59 126-115 101 87 113-143 113 117 81-71 166 175V600H0Z" fill="url(#mount)" opacity=".95"/>
<path d="M0 355c114-20 188 27 291 13 117-17 164-79 277-79 90 0 153 52 243 66 33 5 58 4 89 0V600H0Z" fill="#1f6cb0" opacity=".55"/>
<circle cx="700" cy="105" r="64" fill="#fff1b7" opacity=".9"/>
<g fill="#fff" opacity=".85"><ellipse cx="690" cy="108" rx="130" ry="24"/><ellipse cx="770" cy="111" rx="68" ry="18"/></g>
</svg>