<svg xmlns="http://www.w3.org/2000/svg" viewBox="0 0 900 650">
<rect width="900" height="650" fill="#f8efe0"/>
<circle cx="728" cy="126" r="68" fill="#f4b860"/>
<path d="M0 400 200 160l150 190 165-215 200 252 185-190v453H0Z" fill="#a8c7a0"/>
<path d="M0 465 230 290l150 140 165-170 164 166 191-115v339H0Z" fill="#365d52"/>
<path d="M0 542c244-52 510-45 900 20v88H0Z" fill="#e7d9bc"/>
<g fill="#f7f0df" stroke="#183c32" stroke-width="8">
<path d="M173 500h130v105H173z"/><path d="m154 500 84-70 84 70Z"/>
<path d="M347 520h113v89H347z"/><path d="m331 520 72-57 72 57Z"/>
<path d="M505 486h142v121H505z"/><path d="m485 486 91-79 91 79Z"/>
</g>
<path d="M217 605v-56h42v56m166 4v-48h35v48m103-2v-64h44v64" fill="#d66b4d"/>
</svg>